<svg width="406" height="96" viewBox="0 0 406 96" fill="none" xmlns="http://www.w3.org/2000/svg">
<path d="M128.12 71V20.6H134.384V65.528H150.44V71H128.12ZM181.987 59.48C181.987 63.512 180.979 66.44 178.963 68.264C176.995 70.088 173.923 71 169.747 71H168.811C164.635 71 161.539 70.088 159.523 68.264C157.555 66.44 156.571 63.512 156.571 59.48V46.52C156.571 42.488 157.555 39.56 159.523 37.736C161.539 35.912 164.635 35 168.811 35H169.747C173.923 35 176.995 35.912 178.963 37.736C180.979 39.56 181.987 42.488 181.987 46.52V59.48ZM175.867 45.08C175.867 43.592 175.411 42.44 174.499 41.624C173.587 40.808 172.243 40.4 170.467 40.4H168.091C166.315 40.4 164.971 40.808 164.059 41.624C163.147 42.44 162.691 43.592 162.691 45.08V60.92C162.691 62.408 163.147 63.56 164.059 64.376C164.971 65.192 166.315 65.6 168.091 65.6H170.467C172.243 65.6 173.587 65.192 174.499 64.376C175.411 63.56 175.867 62.408 175.867 60.92V45.08ZM219.007 73.52C219.007 76.784 218.023 79.208 216.055 80.792C214.135 82.424 211.111 83.24 206.983 83.24H192.439V77.84H207.703C209.431 77.84 210.727 77.504 211.591 76.832C212.455 76.16 212.887 75.296 212.887 74.24V71.936C212.887 70.832 212.455 69.968 211.591 69.344C210.727 68.672 209.431 68.336 207.703 68.336H195.679V58.4C194.095 57.536 192.919 56.288 192.151 54.656C191.383 53.024 190.999 50.912 190.999 48.32V46.52C190.999 42.488 191.983 39.56 193.951 37.736C195.967 35.912 199.063 35 203.239 35H217.927V48.32C217.927 51.92 216.943 54.752 214.975 56.816C213.007 58.832 210.391 59.84 207.127 59.84H201.799V62.936H206.983C211.111 62.936 214.135 63.752 216.055 65.384C218.023 66.968 219.007 69.392 219.007 72.656V73.52ZM207.127 54.44C208.615 54.44 209.743 53.96 210.511 53C211.279 52.04 211.711 51.032 211.807 49.976V40.4H202.519C200.743 40.4 199.399 40.808 198.487 41.624C197.575 42.44 197.119 43.592 197.119 45.08V49.76C197.119 51.248 197.575 52.4 198.487 53.216C199.399 54.032 200.743 54.44 202.519 54.44H207.127ZM234.137 71C232.505 71 231.065 70.424 229.817 69.272C228.617 68.12 228.017 66.296 228.017 63.8V20.6H234.137V63.44C234.137 64.208 234.329 64.76 234.713 65.096C235.097 65.432 235.745 65.6 236.657 65.6H238.097V71H234.137ZM260.993 74.168C260.417 76.328 259.817 78.056 259.193 79.352C258.569 80.696 257.681 81.728 256.529 82.448C255.425 83.216 253.937 83.6 252.065 83.6C251.057 83.6 249.689 83.456 247.961 83.168V77.912C249.305 78.104 250.553 78.2 251.705 78.2C253.049 78.2 254.009 77.12 254.585 74.96L255.737 71H254.297L243.137 35H249.761L258.113 64.736L265.169 35H271.433L260.993 74.168ZM304.617 59.48C304.617 63.512 303.609 66.44 301.593 68.264C299.625 70.088 296.553 71 292.377 71H279.705V20.6H285.825V36.44C287.265 35.48 289.065 35 291.225 35H292.377C296.601 35 299.697 35.912 301.665 37.736C303.633 39.512 304.617 42.44 304.617 46.52V59.48ZM290.505 40.4C288.921 40.4 287.745 40.832 286.977 41.696C286.209 42.512 285.825 43.4 285.825 44.36V65.6H293.097C294.873 65.6 296.217 65.192 297.129 64.376C298.041 63.56 298.497 62.408 298.497 60.92V45.08C298.497 43.592 298.041 42.44 297.129 41.624C296.217 40.808 294.873 40.4 293.097 40.4H290.505ZM336.664 71C336.04 71 335.344 70.808 334.576 70.424C333.856 70.04 333.232 69.512 332.704 68.84C331.6 70.28 330.136 71 328.312 71H323.344C319.696 71 317.032 70.28 315.352 68.84C313.72 67.352 312.904 64.832 312.904 61.28V59.84C312.904 52.4 316.408 48.68 323.416 48.68H330.904V45.08C330.904 43.592 330.448 42.44 329.536 41.624C328.624 40.808 327.28 40.4 325.504 40.4H315.784V35H324.784C328.96 35 332.032 35.912 334 37.736C336.016 39.56 337.024 42.488 337.024 46.52V63.8C337.024 64.52 337.288 65.072 337.816 65.456C338.392 65.792 339.328 65.96 340.624 65.96V71H336.664ZM327.592 65.6C329.032 65.6 329.944 65.264 330.328 64.592C330.712 63.92 330.904 63.056 330.904 62V54.08H323.344C322.096 54.08 321.064 54.488 320.248 55.304C319.432 56.12 319.024 57.152 319.024 58.4V62C319.024 63.248 319.312 64.16 319.888 64.736C320.464 65.312 321.376 65.6 322.624 65.6H327.592ZM368.252 62C368.252 65.024 367.316 67.28 365.444 68.768C363.62 70.256 360.956 71 357.452 71H348.164V65.6H358.172C359.468 65.6 360.452 65.336 361.124 64.808C361.796 64.232 362.132 63.416 362.132 62.36V58.544C362.132 56.384 361.1 55.304 359.036 55.304H357.812C354.452 55.304 351.932 54.584 350.252 53.144C348.62 51.656 347.804 49.328 347.804 46.16V44.072C347.804 40.856 348.716 38.552 350.54 37.16C352.364 35.72 355.052 35 358.604 35H366.812V40.4H357.884C356.684 40.4 355.724 40.688 355.004 41.264C354.284 41.792 353.924 42.584 353.924 43.64V46.232C353.924 47.336 354.236 48.152 354.86 48.68C355.532 49.208 356.372 49.472 357.38 49.472H358.388C361.604 49.472 364.052 50.264 365.732 51.848C367.412 53.384 368.252 55.688 368.252 58.76V62ZM389.522 71C385.298 71 382.202 70.112 380.234 68.336C378.266 66.512 377.282 63.56 377.282 59.48V46.52C377.282 42.392 378.17 39.44 379.946 37.664C381.722 35.888 384.674 35 388.802 35H390.746C394.154 35 396.722 35.96 398.45 37.88C400.226 39.752 401.114 42.512 401.114 46.16V55.52H383.402V60.92C383.402 62.408 383.858 63.56 384.77 64.376C385.682 65.192 387.026 65.6 388.802 65.6H398.81V71H389.522ZM395.138 50.12V44.72C395.138 43.472 394.73 42.44 393.914 41.624C393.098 40.808 392.066 40.4 390.818 40.4H388.082C386.354 40.4 385.13 40.808 384.41 41.624C383.738 42.392 383.402 43.544 383.402 45.08V50.12H395.138Z" fill="white"/>
<path d="M56.2645 0L92 0L36.8 70.4665H0L56.2645 0Z" fill="white"/>
<path d="M92 96V70.4665L36.8 70.4665V96H92Z" fill="white"/>
</svg>
