<svg width="410" height="96" viewBox="0 0 410 96" fill="none" xmlns="http://www.w3.org/2000/svg">
<path d="M132.12 71V20.6H138.384V65.528H154.44V71H132.12ZM185.987 59.48C185.987 63.512 184.979 66.44 182.963 68.264C180.995 70.088 177.923 71 173.747 71H172.811C168.635 71 165.539 70.088 163.523 68.264C161.555 66.44 160.571 63.512 160.571 59.48V46.52C160.571 42.488 161.555 39.56 163.523 37.736C165.539 35.912 168.635 35 172.811 35H173.747C177.923 35 180.995 35.912 182.963 37.736C184.979 39.56 185.987 42.488 185.987 46.52V59.48ZM179.867 45.08C179.867 43.592 179.411 42.44 178.499 41.624C177.587 40.808 176.243 40.4 174.467 40.4H172.091C170.315 40.4 168.971 40.808 168.059 41.624C167.147 42.44 166.691 43.592 166.691 45.08V60.92C166.691 62.408 167.147 63.56 168.059 64.376C168.971 65.192 170.315 65.6 172.091 65.6H174.467C176.243 65.6 177.587 65.192 178.499 64.376C179.411 63.56 179.867 62.408 179.867 60.92V45.08ZM223.007 73.52C223.007 76.784 222.023 79.208 220.055 80.792C218.135 82.424 215.111 83.24 210.983 83.24H196.439V77.84H211.703C213.431 77.84 214.727 77.504 215.591 76.832C216.455 76.16 216.887 75.296 216.887 74.24V71.936C216.887 70.832 216.455 69.968 215.591 69.344C214.727 68.672 213.431 68.336 211.703 68.336H199.679V58.4C198.095 57.536 196.919 56.288 196.151 54.656C195.383 53.024 194.999 50.912 194.999 48.32V46.52C194.999 42.488 195.983 39.56 197.951 37.736C199.967 35.912 203.063 35 207.239 35H221.927V48.32C221.927 51.92 220.943 54.752 218.975 56.816C217.007 58.832 214.391 59.84 211.127 59.84H205.799V62.936H210.983C215.111 62.936 218.135 63.752 220.055 65.384C222.023 66.968 223.007 69.392 223.007 72.656V73.52ZM211.127 54.44C212.615 54.44 213.743 53.96 214.511 53C215.279 52.04 215.711 51.032 215.807 49.976V40.4H206.519C204.743 40.4 203.399 40.808 202.487 41.624C201.575 42.44 201.119 43.592 201.119 45.08V49.76C201.119 51.248 201.575 52.4 202.487 53.216C203.399 54.032 204.743 54.44 206.519 54.44H211.127ZM238.137 71C236.505 71 235.065 70.424 233.817 69.272C232.617 68.12 232.017 66.296 232.017 63.8V20.6H238.137V63.44C238.137 64.208 238.329 64.76 238.713 65.096C239.097 65.432 239.745 65.6 240.657 65.6H242.097V71H238.137ZM264.993 74.168C264.417 76.328 263.817 78.056 263.193 79.352C262.569 80.696 261.681 81.728 260.529 82.448C259.425 83.216 257.937 83.6 256.065 83.6C255.057 83.6 253.689 83.456 251.961 83.168V77.912C253.305 78.104 254.553 78.2 255.705 78.2C257.049 78.2 258.009 77.12 258.585 74.96L259.737 71H258.297L247.137 35H253.761L262.113 64.736L269.169 35H275.433L264.993 74.168ZM308.617 59.48C308.617 63.512 307.609 66.44 305.593 68.264C303.625 70.088 300.553 71 296.377 71H283.705V20.6H289.825V36.44C291.265 35.48 293.065 35 295.225 35H296.377C300.601 35 303.697 35.912 305.665 37.736C307.633 39.512 308.617 42.44 308.617 46.52V59.48ZM294.505 40.4C292.921 40.4 291.745 40.832 290.977 41.696C290.209 42.512 289.825 43.4 289.825 44.36V65.6H297.097C298.873 65.6 300.217 65.192 301.129 64.376C302.041 63.56 302.497 62.408 302.497 60.92V45.08C302.497 43.592 302.041 42.44 301.129 41.624C300.217 40.808 298.873 40.4 297.097 40.4H294.505ZM340.664 71C340.04 71 339.344 70.808 338.576 70.424C337.856 70.04 337.232 69.512 336.704 68.84C335.6 70.28 334.136 71 332.312 71H327.344C323.696 71 321.032 70.28 319.352 68.84C317.72 67.352 316.904 64.832 316.904 61.28V59.84C316.904 52.4 320.408 48.68 327.416 48.68H334.904V45.08C334.904 43.592 334.448 42.44 333.536 41.624C332.624 40.808 331.28 40.4 329.504 40.4H319.784V35H328.784C332.96 35 336.032 35.912 338 37.736C340.016 39.56 341.024 42.488 341.024 46.52V63.8C341.024 64.52 341.288 65.072 341.816 65.456C342.392 65.792 343.328 65.96 344.624 65.96V71H340.664ZM331.592 65.6C333.032 65.6 333.944 65.264 334.328 64.592C334.712 63.92 334.904 63.056 334.904 62V54.08H327.344C326.096 54.08 325.064 54.488 324.248 55.304C323.432 56.12 323.024 57.152 323.024 58.4V62C323.024 63.248 323.312 64.16 323.888 64.736C324.464 65.312 325.376 65.6 326.624 65.6H331.592ZM372.252 62C372.252 65.024 371.316 67.28 369.444 68.768C367.62 70.256 364.956 71 361.452 71H352.164V65.6H362.172C363.468 65.6 364.452 65.336 365.124 64.808C365.796 64.232 366.132 63.416 366.132 62.36V58.544C366.132 56.384 365.1 55.304 363.036 55.304H361.812C358.452 55.304 355.932 54.584 354.252 53.144C352.62 51.656 351.804 49.328 351.804 46.16V44.072C351.804 40.856 352.716 38.552 354.54 37.16C356.364 35.72 359.052 35 362.604 35H370.812V40.4H361.884C360.684 40.4 359.724 40.688 359.004 41.264C358.284 41.792 357.924 42.584 357.924 43.64V46.232C357.924 47.336 358.236 48.152 358.86 48.68C359.532 49.208 360.372 49.472 361.38 49.472H362.388C365.604 49.472 368.052 50.264 369.732 51.848C371.412 53.384 372.252 55.688 372.252 58.76V62ZM393.522 71C389.298 71 386.202 70.112 384.234 68.336C382.266 66.512 381.282 63.56 381.282 59.48V46.52C381.282 42.392 382.17 39.44 383.946 37.664C385.722 35.888 388.674 35 392.802 35H394.746C398.154 35 400.722 35.96 402.45 37.88C404.226 39.752 405.114 42.512 405.114 46.16V55.52H387.402V60.92C387.402 62.408 387.858 63.56 388.77 64.376C389.682 65.192 391.026 65.6 392.802 65.6H402.81V71H393.522ZM399.138 50.12V44.72C399.138 43.472 398.73 42.44 397.914 41.624C397.098 40.808 396.066 40.4 394.818 40.4H392.082C390.354 40.4 389.13 40.808 388.41 41.624C387.738 42.392 387.402 43.544 387.402 45.08V50.12H399.138Z" fill="black"/>
<path d="M56.2645 0L92 0L36.8 70.4665H0L56.2645 0Z" fill="#0A0A0A"/>
<path d="M92 96V70.4665L36.8 70.4665V96H92Z" fill="#0A0A0A"/>
</svg>
